<svg width="40" height="40" viewBox="0 0 40 40" fill="none" xmlns="http://www.w3.org/2000/svg">
<path d="M20 3.75C16.7861 3.75 13.6443 4.70305 10.972 6.48862C8.29969 8.27419 6.21689 10.8121 4.98696 13.7814C3.75704 16.7507 3.43524 20.018 4.06225 23.1702C4.68926 26.3224 6.23692 29.2179 8.50952 31.4905C10.7821 33.7631 13.6776 35.3107 16.8298 35.9378C19.982 36.5648 23.2493 36.243 26.2186 35.013C29.1879 33.7831 31.7258 31.7003 33.5114 29.028C35.297 26.3557 36.25 23.2139 36.25 20C36.2417 15.6928 34.527 11.5643 31.4814 8.51864C28.4357 5.47296 24.3072 3.75826 20 3.75ZM14.375 15C14.7458 15 15.1084 15.11 15.4167 15.316C15.725 15.522 15.9654 15.8149 16.1073 16.1575C16.2492 16.5001 16.2863 16.8771 16.214 17.2408C16.1416 17.6045 15.9631 17.9386 15.7008 18.2008C15.4386 18.463 15.1045 18.6416 14.7408 18.714C14.3771 18.7863 14.0001 18.7492 13.6575 18.6073C13.3149 18.4654 13.022 18.225 12.816 17.9167C12.61 17.6084 12.5 17.2458 12.5 16.875C12.5 16.3777 12.6976 15.9008 13.0492 15.5492C13.4008 15.1975 13.8777 15 14.375 15ZM26.25 26.25H13.75C13.4185 26.25 13.1005 26.1183 12.8661 25.8839C12.6317 25.6495 12.5 25.3315 12.5 25C12.5 24.6685 12.6317 24.3505 12.8661 24.1161C13.1005 23.8817 13.4185 23.75 13.75 23.75H26.25C26.5815 23.75 26.8995 23.8817 27.1339 24.1161C27.3683 24.3505 27.5 24.6685 27.5 25C27.5 25.3315 27.3683 25.6495 27.1339 25.8839C26.8995 26.1183 26.5815 26.25 26.25 26.25ZM25.625 18.75C25.2542 18.75 24.8917 18.64 24.5833 18.434C24.275 18.228 24.0346 17.9351 23.8927 17.5925C23.7508 17.2499 23.7137 16.8729 23.786 16.5092C23.8584 16.1455 24.037 15.8114 24.2992 15.5492C24.5614 15.287 24.8955 15.1084 25.2592 15.036C25.6229 14.9637 25.9999 15.0008 26.3425 15.1427C26.6851 15.2846 26.978 15.525 27.184 15.8333C27.39 16.1416 27.5 16.5042 27.5 16.875C27.5 17.3723 27.3025 17.8492 26.9508 18.2008C26.5992 18.5525 26.1223 18.75 25.625 18.75Z" fill="#ABABAB"/>
</svg>
