<svg width="40" height="40" viewBox="0 0 40 40" fill="none" xmlns="http://www.w3.org/2000/svg">
<path d="M20 3.75C16.7861 3.75 13.6443 4.70305 10.972 6.48862C8.29969 8.27419 6.21689 10.8121 4.98696 13.7814C3.75704 16.7507 3.43524 20.018 4.06225 23.1702C4.68926 26.3224 6.23692 29.2179 8.50952 31.4905C10.7821 33.7631 13.6776 35.3107 16.8298 35.9378C19.982 36.5648 23.2493 36.243 26.2186 35.013C29.1879 33.7831 31.7258 31.7003 33.5114 29.028C35.297 26.3557 36.25 23.2139 36.25 20C36.2417 15.6928 34.527 11.5643 31.4814 8.51864C28.4357 5.47296 24.3072 3.75826 20 3.75ZM25.625 15C25.9958 15 26.3584 15.11 26.6667 15.316C26.975 15.522 27.2154 15.8149 27.3573 16.1575C27.4992 16.5001 27.5363 16.8771 27.464 17.2408C27.3916 17.6045 27.2131 17.9386 26.9508 18.2008C26.6886 18.463 26.3545 18.6416 25.9908 18.714C25.6271 18.7863 25.2501 18.7492 24.9075 18.6073C24.5649 18.4654 24.272 18.225 24.066 17.9167C23.86 17.6084 23.75 17.2458 23.75 16.875C23.75 16.3777 23.9476 15.9008 24.2992 15.5492C24.6508 15.1975 25.1277 15 25.625 15ZM14.375 15C14.7458 15 15.1084 15.11 15.4167 15.316C15.725 15.522 15.9654 15.8149 16.1073 16.1575C16.2492 16.5001 16.2863 16.8771 16.214 17.2408C16.1416 17.6045 15.9631 17.9386 15.7008 18.2008C15.4386 18.463 15.1045 18.6416 14.7408 18.714C14.3771 18.7863 14.0001 18.7492 13.6575 18.6073C13.3149 18.4654 13.022 18.225 12.816 17.9167C12.61 17.6084 12.5 17.2458 12.5 16.875C12.5 16.3777 12.6976 15.9008 13.0492 15.5492C13.4008 15.1975 13.8777 15 14.375 15ZM27.125 28.5781C26.9366 28.6923 26.7202 28.7518 26.5 28.75C26.2804 28.7542 26.0638 28.6981 25.8737 28.588C25.6837 28.4778 25.5274 28.3177 25.4219 28.125C24.8714 27.1745 24.0807 26.3855 23.1291 25.8369C22.1775 25.2884 21.0984 24.9996 20 24.9996C18.9016 24.9996 17.8225 25.2884 16.8709 25.8369C15.9193 26.3855 15.1286 27.1745 14.5781 28.125C14.5036 28.2804 14.3977 28.4187 14.2671 28.5313C14.1366 28.6438 13.9841 28.7281 13.8194 28.7789C13.6547 28.8297 13.4812 28.8459 13.31 28.8264C13.1387 28.807 12.9733 28.7523 12.8242 28.6658C12.675 28.5794 12.5454 28.463 12.4434 28.3241C12.3414 28.1851 12.2692 28.0266 12.2315 27.8584C12.1937 27.6902 12.1911 27.516 12.2239 27.3468C12.2566 27.1775 12.3241 27.0169 12.4219 26.875C13.1898 25.5446 14.2944 24.4399 15.6247 23.6718C16.9549 22.9037 18.4639 22.4993 20 22.4993C21.5361 22.4993 23.0451 22.9037 24.3754 23.6718C25.7056 24.4399 26.8102 25.5446 27.5781 26.875C27.7429 27.1612 27.7877 27.5009 27.7028 27.82C27.6179 28.1391 27.4102 28.4116 27.125 28.5781Z" fill="#ABABAB"/>
</svg>
