<svg width="40" height="40" viewBox="0 0 40 40" fill="none" xmlns="http://www.w3.org/2000/svg">
<path d="M20 3.75C16.7861 3.75 13.6443 4.70305 10.972 6.48862C8.29969 8.27419 6.21689 10.8121 4.98696 13.7814C3.75704 16.7507 3.43524 20.018 4.06225 23.1702C4.68926 26.3224 6.23692 29.2179 8.50952 31.4905C10.7821 33.7631 13.6776 35.3107 16.8298 35.9378C19.982 36.5648 23.2493 36.243 26.2186 35.013C29.1879 33.7831 31.7258 31.7003 33.5114 29.028C35.297 26.3557 36.25 23.2139 36.25 20C36.2417 15.6928 34.527 11.5643 31.4814 8.51864C28.4357 5.47296 24.3072 3.75826 20 3.75ZM17.1406 19.1094C17.3754 19.3464 17.507 19.6664 17.507 20C17.507 20.3336 17.3754 20.6536 17.1406 20.8906C16.9017 21.1217 16.5824 21.2508 16.25 21.2508C15.9177 21.2508 15.5983 21.1217 15.3594 20.8906L13.75 19.2656L12.1406 20.8906C11.9017 21.1217 11.5824 21.2508 11.25 21.2508C10.9177 21.2508 10.5983 21.1217 10.3594 20.8906C10.1247 20.6536 9.99298 20.3336 9.99298 20C9.99298 19.6664 10.1247 19.3464 10.3594 19.1094L11.9844 17.5L10.3594 15.8906C10.1601 15.6478 10.0582 15.3394 10.0736 15.0256C10.089 14.7118 10.2206 14.4149 10.4428 14.1928C10.6649 13.9706 10.9618 13.839 11.2756 13.8236C11.5894 13.8082 11.8978 13.91 12.1406 14.1094L13.75 15.7344L15.3594 14.1094C15.6023 13.91 15.9106 13.8082 16.2244 13.8236C16.5382 13.839 16.8351 13.9706 17.0572 14.1928C17.2794 14.4149 17.411 14.7118 17.4264 15.0256C17.4418 15.3394 17.34 15.6478 17.1406 15.8906L15.5156 17.5L17.1406 19.1094ZM20 30C19.6292 30 19.2667 29.89 18.9583 29.684C18.65 29.478 18.4096 29.1851 18.2677 28.8425C18.1258 28.4999 18.0887 28.1229 18.161 27.7592C18.2334 27.3955 18.412 27.0614 18.6742 26.7992C18.9364 26.537 19.2705 26.3584 19.6342 26.286C19.9979 26.2137 20.3749 26.2508 20.7175 26.3927C21.0601 26.5346 21.353 26.775 21.559 27.0833C21.765 27.3916 21.875 27.7542 21.875 28.125C21.875 28.6223 21.6775 29.0992 21.3258 29.4508C20.9742 29.8025 20.4973 30 20 30ZM29.6406 19.1094C29.8754 19.3464 30.007 19.6664 30.007 20C30.007 20.3336 29.8754 20.6536 29.6406 20.8906C29.4017 21.1217 29.0824 21.2508 28.75 21.2508C28.4177 21.2508 28.0983 21.1217 27.8594 20.8906L26.25 19.2656L24.6406 20.8906C24.4017 21.1217 24.0824 21.2508 23.75 21.2508C23.4177 21.2508 23.0983 21.1217 22.8594 20.8906C22.6247 20.6536 22.493 20.3336 22.493 20C22.493 19.6664 22.6247 19.3464 22.8594 19.1094L24.4844 17.5L22.8594 15.8906C22.6601 15.6478 22.5582 15.3394 22.5736 15.0256C22.589 14.7118 22.7206 14.4149 22.9428 14.1928C23.1649 13.9706 23.4618 13.839 23.7756 13.8236C24.0894 13.8082 24.3978 13.91 24.6406 14.1094L26.25 15.7344L27.8594 14.1094C28.1023 13.91 28.4106 13.8082 28.7244 13.8236C29.0382 13.839 29.3351 13.9706 29.5572 14.1928C29.7794 14.4149 29.911 14.7118 29.9264 15.0256C29.9418 15.3394 29.84 15.6478 29.6406 15.8906L28.0156 17.5L29.6406 19.1094Z" fill="#ABABAB"/>
</svg>
