<svg width="40" height="40" viewBox="0 0 40 40" fill="none" xmlns="http://www.w3.org/2000/svg">
<path d="M20 3.75C16.7861 3.75 13.6443 4.70305 10.972 6.48862C8.29969 8.27419 6.21689 10.8121 4.98696 13.7814C3.75704 16.7507 3.43524 20.018 4.06225 23.1702C4.68926 26.3224 6.23692 29.2179 8.50952 31.4905C10.7821 33.7631 13.6776 35.3107 16.8298 35.9378C19.982 36.5648 23.2493 36.243 26.2186 35.013C29.1879 33.7831 31.7258 31.7003 33.5114 29.028C35.297 26.3557 36.25 23.2139 36.25 20C36.2417 15.6928 34.527 11.5643 31.4814 8.51864C28.4357 5.47296 24.3072 3.75826 20 3.75ZM25.625 15C25.9958 15 26.3584 15.11 26.6667 15.316C26.975 15.522 27.2154 15.8149 27.3573 16.1575C27.4992 16.5001 27.5363 16.8771 27.464 17.2408C27.3916 17.6045 27.2131 17.9386 26.9508 18.2008C26.6886 18.463 26.3545 18.6416 25.9908 18.714C25.6271 18.7863 25.2501 18.7492 24.9075 18.6073C24.5649 18.4654 24.272 18.225 24.066 17.9167C23.86 17.6084 23.75 17.2458 23.75 16.875C23.75 16.3777 23.9476 15.9008 24.2992 15.5492C24.6508 15.1975 25.1277 15 25.625 15ZM14.375 15C14.7458 15 15.1084 15.11 15.4167 15.316C15.725 15.522 15.9654 15.8149 16.1073 16.1575C16.2492 16.5001 16.2863 16.8771 16.214 17.2408C16.1416 17.6045 15.9631 17.9386 15.7008 18.2008C15.4386 18.463 15.1045 18.6416 14.7408 18.714C14.3771 18.7863 14.0001 18.7492 13.6575 18.6073C13.3149 18.4654 13.022 18.225 12.816 17.9167C12.61 17.6084 12.5 17.2458 12.5 16.875C12.5 16.3777 12.6976 15.9008 13.0492 15.5492C13.4008 15.1975 13.8777 15 14.375 15ZM27.5781 24.375C26.8102 25.7054 25.7056 26.8101 24.3754 27.5782C23.0451 28.3463 21.5361 28.7507 20 28.7507C18.4639 28.7507 16.9549 28.3463 15.6247 27.5782C14.2944 26.8101 13.1898 25.7054 12.4219 24.375C12.3241 24.2331 12.2566 24.0725 12.2239 23.9032C12.1911 23.734 12.1937 23.5598 12.2315 23.3916C12.2692 23.2234 12.3414 23.0649 12.4434 22.9259C12.5454 22.787 12.675 22.6706 12.8242 22.5842C12.9733 22.4977 13.1387 22.443 13.31 22.4236C13.4812 22.4041 13.6547 22.4203 13.8194 22.4711C13.9841 22.5219 14.1366 22.6062 14.2671 22.7187C14.3977 22.8313 14.5036 22.9696 14.5781 23.125C15.1286 24.0755 15.9193 24.8645 16.8709 25.4131C17.8225 25.9616 18.9016 26.2504 20 26.2504C21.0984 26.2504 22.1775 25.9616 23.1291 25.4131C24.0807 24.8645 24.8714 24.0755 25.4219 23.125C25.6004 22.8659 25.8701 22.6838 26.1771 22.6148C26.4841 22.5459 26.8058 22.5952 27.078 22.753C27.3502 22.9108 27.5529 23.1654 27.6456 23.4661C27.7383 23.7668 27.7142 24.0913 27.5781 24.375Z" fill="#ABABAB"/>
</svg>
