<svg width="40" height="40" viewBox="0 0 40 40" fill="none" xmlns="http://www.w3.org/2000/svg">
<g clip-path="url(#clip0_332_23116)">
<path d="M20 4C15.7579 4.00459 11.6909 5.69177 8.69136 8.69136C5.69177 11.6909 4.00459 15.7579 4 20C4.8 41.2 35.2 41.1907 36 20C35.9954 15.7579 34.3082 11.6909 31.3086 8.69136C28.3091 5.69177 24.2421 4.00459 20 4V4ZM24.6667 14.6667C25.1971 14.6667 25.7058 14.8774 26.0809 15.2525C26.456 15.6275 26.6667 16.1362 26.6667 16.6667C26.6667 17.1971 26.456 17.7058 26.0809 18.0809C25.7058 18.456 25.1971 18.6667 24.6667 18.6667C24.1362 18.6667 23.6275 18.456 23.2525 18.0809C22.8774 17.7058 22.6667 17.1971 22.6667 16.6667C22.6667 16.1362 22.8774 15.6275 23.2525 15.2525C23.6275 14.8774 24.1362 14.6667 24.6667 14.6667ZM15.3333 14.6667C15.8638 14.6667 16.3725 14.8774 16.7475 15.2525C17.1226 15.6275 17.3333 16.1362 17.3333 16.6667C17.3333 17.1971 17.1226 17.7058 16.7475 18.0809C16.3725 18.456 15.8638 18.6667 15.3333 18.6667C14.8029 18.6667 14.2942 18.456 13.9191 18.0809C13.544 17.7058 13.3333 17.1971 13.3333 16.6667C13.3333 16.1362 13.544 15.6275 13.9191 15.2525C14.2942 14.8774 14.8029 14.6667 15.3333 14.6667ZM27.7893 24.7227C27.0059 26.1038 25.8748 27.256 24.5084 28.0648C23.142 28.8736 21.5877 29.311 20 29.3333C18.4112 29.3111 16.8558 28.874 15.488 28.0652C14.1203 27.2565 12.9877 26.1042 12.2027 24.7227C12.0609 24.5014 11.9877 24.2432 11.9922 23.9804C11.9968 23.7177 12.0788 23.4621 12.2281 23.2459C12.3774 23.0296 12.5873 22.8623 12.8314 22.765C13.0754 22.6676 13.3429 22.6445 13.6 22.6987C15.6502 23.4711 17.8109 23.9104 20 24C22.1855 23.9093 24.3425 23.47 26.3893 22.6987C26.6467 22.6439 26.9145 22.6664 27.159 22.7635C27.4036 22.8606 27.6139 23.0279 27.7636 23.2443C27.9133 23.4607 27.9956 23.7165 28.0002 23.9796C28.0048 24.2426 27.9314 24.5012 27.7893 24.7227Z" fill="#FF4D6D"/>
</g>
<defs>
<clipPath id="clip0_332_23116">
<rect width="32" height="32" fill="white" transform="translate(4 4)"/>
</clipPath>
</defs>
</svg>
